<svg width="364" height="40" viewBox="0 0 364 40" fill="none" xmlns="http://www.w3.org/2000/svg">
<path d="M17.3097 10.2756C17.196 9.12973 16.7083 8.23958 15.8466 7.60511C14.9848 6.97064 13.8153 6.65341 12.3381 6.65341C11.3343 6.65341 10.4867 6.79545 9.79545 7.07955C9.10417 7.35417 8.57386 7.73769 8.20455 8.23011C7.8447 8.72254 7.66477 9.28125 7.66477 9.90625C7.64583 10.4271 7.75473 10.8816 7.99148 11.2699C8.23769 11.6581 8.57386 11.9943 9 12.2784C9.42614 12.553 9.91856 12.7945 10.4773 13.0028C11.036 13.2017 11.6326 13.3722 12.267 13.5142L14.8807 14.1392C16.1496 14.4233 17.3144 14.8021 18.375 15.2756C19.4356 15.7491 20.3542 16.3314 21.1307 17.0227C21.9072 17.714 22.5085 18.5284 22.9347 19.4659C23.3703 20.4034 23.5928 21.4782 23.6023 22.6903C23.5928 24.4706 23.1383 26.0142 22.2386 27.321C21.3485 28.6184 20.0606 29.6269 18.375 30.3466C16.6989 31.0568 14.6771 31.4119 12.3097 31.4119C9.96117 31.4119 7.91572 31.0521 6.1733 30.3324C4.44034 29.6127 3.08617 28.5473 2.1108 27.1364C1.14489 25.7159 0.638258 23.9593 0.590909 21.8665H6.54261C6.6089 22.8419 6.88826 23.6562 7.38068 24.3097C7.88258 24.9536 8.55019 25.4413 9.38352 25.7727C10.2263 26.0947 11.178 26.2557 12.2386 26.2557C13.2803 26.2557 14.1847 26.1042 14.9517 25.8011C15.7282 25.4981 16.3295 25.0767 16.7557 24.5369C17.1818 23.9972 17.3949 23.3769 17.3949 22.6761C17.3949 22.0227 17.2008 21.4735 16.8125 21.0284C16.4337 20.5833 15.875 20.2045 15.1364 19.892C14.4072 19.5795 13.5123 19.2955 12.4517 19.0398L9.28409 18.2443C6.83144 17.6477 4.89489 16.715 3.47443 15.446C2.05398 14.1771 1.34848 12.4678 1.35795 10.3182C1.34848 8.55682 1.81723 7.01799 2.7642 5.7017C3.72064 4.38542 5.0322 3.35795 6.69886 2.61932C8.36553 1.88068 10.2595 1.51136 12.3807 1.51136C14.5398 1.51136 16.4242 1.88068 18.0341 2.61932C19.6534 3.35795 20.9129 4.38542 21.8125 5.7017C22.7121 7.01799 23.1761 8.54261 23.2045 10.2756H17.3097ZM39.2308 9.18182V13.7273H26.0916V9.18182H39.2308ZM29.0746 3.95455H35.1257V24.2955C35.1257 24.8542 35.2109 25.2898 35.3814 25.6023C35.5518 25.9053 35.7886 26.1184 36.0916 26.2415C36.4041 26.3646 36.764 26.4261 37.1712 26.4261C37.4553 26.4261 37.7393 26.4025 38.0234 26.3551C38.3075 26.2983 38.5253 26.2557 38.6768 26.2273L39.6286 30.7301C39.3255 30.8248 38.8994 30.9337 38.3501 31.0568C37.8009 31.1894 37.1333 31.2699 36.3473 31.2983C34.889 31.3551 33.6106 31.161 32.5121 30.7159C31.4231 30.2708 30.5755 29.5795 29.9695 28.642C29.3634 27.7045 29.0651 26.5208 29.0746 25.0909V3.95455ZM43.1726 31V9.18182H49.0391V12.9886H49.2663C49.6641 11.6345 50.3317 10.6117 51.2692 9.92045C52.2067 9.2197 53.2862 8.86932 54.5078 8.86932C54.8108 8.86932 55.1375 8.88826 55.4879 8.92614C55.8383 8.96402 56.1461 9.0161 56.4112 9.08239V14.4517C56.1271 14.3665 55.7341 14.2907 55.2322 14.2244C54.7304 14.1581 54.2711 14.125 53.8544 14.125C52.9643 14.125 52.1688 14.3191 51.468 14.7074C50.7768 15.0862 50.2275 15.6165 49.8203 16.2983C49.4226 16.9801 49.2237 17.7661 49.2237 18.6562V31H43.1726ZM68.4673 31.4261C66.223 31.4261 64.2912 30.9716 62.6719 30.0625C61.062 29.1439 59.8215 27.8466 58.9503 26.1705C58.0791 24.4848 57.6435 22.4915 57.6435 20.1903C57.6435 17.946 58.0791 15.9763 58.9503 14.2812C59.8215 12.5862 61.0478 11.2652 62.6293 10.3182C64.2202 9.37121 66.0857 8.89773 68.2259 8.89773C69.6652 8.89773 71.0052 9.12973 72.2457 9.59375C73.4957 10.0483 74.5848 10.7348 75.5128 11.6534C76.4503 12.572 77.1795 13.7273 77.7003 15.1193C78.2211 16.5019 78.4815 18.1212 78.4815 19.9773V21.6392H60.0582V17.8892H72.7855C72.7855 17.018 72.5961 16.2462 72.2173 15.5739C71.8385 14.9015 71.313 14.3759 70.6406 13.9972C69.9777 13.6089 69.206 13.4148 68.3253 13.4148C67.4067 13.4148 66.5923 13.6278 65.8821 14.054C65.1813 14.4706 64.6321 15.0341 64.2344 15.7443C63.8366 16.4451 63.633 17.2263 63.6236 18.0881V21.6534C63.6236 22.733 63.8224 23.6657 64.2202 24.4517C64.6274 25.2377 65.2003 25.8438 65.9389 26.2699C66.6776 26.696 67.5535 26.9091 68.5668 26.9091C69.2391 26.9091 69.8546 26.8144 70.4134 26.625C70.9721 26.4356 71.4503 26.1515 71.848 25.7727C72.2457 25.3939 72.5488 24.9299 72.7571 24.3807L78.3537 24.75C78.0696 26.0947 77.4872 27.2689 76.6065 28.2727C75.7353 29.267 74.6084 30.0436 73.2259 30.6023C71.8527 31.1515 70.2666 31.4261 68.4673 31.4261ZM88.652 31.4119C87.2599 31.4119 86.0194 31.1705 84.9304 30.6875C83.8414 30.1951 82.9796 29.4706 82.3452 28.5142C81.7202 27.5483 81.4077 26.3456 81.4077 24.9062C81.4077 23.6941 81.6302 22.6761 82.0753 21.8523C82.5204 21.0284 83.1264 20.3655 83.8935 19.8636C84.6605 19.3617 85.5317 18.983 86.5071 18.7273C87.492 18.4716 88.5241 18.2917 89.6037 18.1875C90.8726 18.0549 91.8954 17.9318 92.6719 17.8182C93.4484 17.6951 94.0118 17.5152 94.3622 17.2784C94.7126 17.0417 94.8878 16.6913 94.8878 16.2273V16.142C94.8878 15.2424 94.6037 14.5464 94.0355 14.054C93.4768 13.5616 92.6813 13.3153 91.6491 13.3153C90.5601 13.3153 89.6937 13.5568 89.0497 14.0398C88.4058 14.5133 87.9796 15.1098 87.7713 15.8295L82.1747 15.375C82.4588 14.0492 83.0175 12.9034 83.8509 11.9375C84.6842 10.9621 85.759 10.214 87.0753 9.69318C88.401 9.16288 89.9351 8.89773 91.6776 8.89773C92.8897 8.89773 94.0497 9.03977 95.1577 9.32386C96.2751 9.60795 97.2647 10.0483 98.1264 10.6449C98.9976 11.2415 99.6842 12.0085 100.186 12.946C100.688 13.8741 100.939 14.9867 100.939 16.2841V31H95.2003V27.9744H95.0298C94.6795 28.6562 94.2107 29.2576 93.6236 29.7784C93.0365 30.2898 92.331 30.6922 91.5071 30.9858C90.6832 31.2699 89.7315 31.4119 88.652 31.4119ZM90.3849 27.2358C91.2751 27.2358 92.0611 27.0606 92.7429 26.7102C93.4247 26.3504 93.9598 25.8674 94.348 25.2614C94.7363 24.6553 94.9304 23.9687 94.9304 23.2017V20.8864C94.741 21.0095 94.4806 21.1231 94.1491 21.2273C93.8272 21.322 93.4626 21.4119 93.0554 21.4972C92.6482 21.5729 92.241 21.6439 91.8338 21.7102C91.4266 21.767 91.0573 21.8191 90.7259 21.8665C90.0156 21.9706 89.3954 22.1364 88.8651 22.3636C88.3348 22.5909 87.9228 22.8987 87.6293 23.2869C87.3357 23.6657 87.1889 24.1392 87.1889 24.7074C87.1889 25.5312 87.4872 26.161 88.0838 26.5966C88.6899 27.0227 89.4569 27.2358 90.3849 27.2358ZM105.634 31V9.18182H111.401V13.0312H111.656C112.111 11.7528 112.868 10.7443 113.929 10.0057C114.99 9.26705 116.259 8.89773 117.736 8.89773C119.232 8.89773 120.506 9.27178 121.557 10.0199C122.608 10.7585 123.309 11.7623 123.659 13.0312H123.886C124.331 11.7812 125.136 10.7822 126.301 10.0341C127.475 9.27652 128.863 8.89773 130.463 8.89773C132.499 8.89773 134.152 9.5464 135.42 10.8438C136.699 12.1316 137.338 13.9593 137.338 16.3267V31H131.301V17.5199C131.301 16.3078 130.979 15.3987 130.335 14.7926C129.691 14.1866 128.886 13.8835 127.92 13.8835C126.822 13.8835 125.965 14.2339 125.349 14.9347C124.734 15.6259 124.426 16.5398 124.426 17.6761V31H118.56V17.392C118.56 16.322 118.252 15.4697 117.636 14.8352C117.03 14.2008 116.23 13.8835 115.236 13.8835C114.563 13.8835 113.957 14.054 113.418 14.3949C112.887 14.7263 112.466 15.1951 112.153 15.8011C111.841 16.3977 111.685 17.0985 111.685 17.9034V31H105.634ZM142.118 31V9.18182H148.169V31H142.118ZM145.158 6.36932C144.258 6.36932 143.486 6.07102 142.842 5.47443C142.208 4.86837 141.891 4.14394 141.891 3.30114C141.891 2.4678 142.208 1.75284 142.842 1.15625C143.486 0.550188 144.258 0.247158 145.158 0.247158C146.057 0.247158 146.824 0.550188 147.459 1.15625C148.103 1.75284 148.425 2.4678 148.425 3.30114C148.425 4.14394 148.103 4.86837 147.459 5.47443C146.824 6.07102 146.057 6.36932 145.158 6.36932ZM159.067 18.3864V31H153.016V9.18182H158.783V13.0312H159.039C159.522 11.7623 160.332 10.7585 161.468 10.0199C162.604 9.27178 163.982 8.89773 165.602 8.89773C167.117 8.89773 168.438 9.22917 169.565 9.89205C170.692 10.5549 171.567 11.5019 172.192 12.733C172.817 13.9545 173.13 15.4129 173.13 17.108V31H167.079V18.1875C167.088 16.8523 166.747 15.8106 166.056 15.0625C165.365 14.3049 164.413 13.9261 163.201 13.9261C162.387 13.9261 161.667 14.1013 161.042 14.4517C160.426 14.8021 159.943 15.3134 159.593 15.9858C159.252 16.6487 159.077 17.4489 159.067 18.3864ZM187.729 39.6364C185.768 39.6364 184.088 39.3665 182.686 38.8267C181.294 38.2964 180.186 37.572 179.362 36.6534C178.538 35.7348 178.003 34.7027 177.757 33.5568L183.354 32.804C183.524 33.2396 183.794 33.6468 184.163 34.0256C184.533 34.4044 185.02 34.7074 185.626 34.9347C186.242 35.1714 186.99 35.2898 187.871 35.2898C189.187 35.2898 190.271 34.9678 191.124 34.3239C191.985 33.6894 192.416 32.6241 192.416 31.1278V27.1364H192.161C191.895 27.7424 191.498 28.3153 190.967 28.8551C190.437 29.3949 189.755 29.8352 188.922 30.1761C188.089 30.517 187.094 30.6875 185.939 30.6875C184.301 30.6875 182.809 30.3087 181.464 29.5511C180.129 28.7841 179.064 27.6146 178.268 26.0426C177.482 24.4612 177.089 22.4631 177.089 20.0483C177.089 17.5767 177.492 15.5123 178.297 13.8551C179.102 12.1979 180.172 10.9574 181.507 10.1335C182.852 9.30966 184.324 8.89773 185.925 8.89773C187.146 8.89773 188.169 9.10606 188.993 9.52273C189.817 9.92992 190.48 10.4413 190.982 11.0568C191.493 11.6629 191.886 12.2595 192.161 12.8466H192.388V9.18182H198.396V31.2131C198.396 33.0691 197.942 34.6222 197.033 35.8722C196.124 37.1222 194.864 38.0597 193.254 38.6847C191.654 39.3191 189.812 39.6364 187.729 39.6364ZM187.857 26.142C188.832 26.142 189.656 25.9006 190.328 25.4176C191.01 24.9252 191.531 24.2244 191.891 23.3153C192.26 22.3968 192.445 21.2983 192.445 20.0199C192.445 18.7415 192.265 17.6335 191.905 16.696C191.545 15.7491 191.024 15.0152 190.342 14.4943C189.661 13.9735 188.832 13.7131 187.857 13.7131C186.862 13.7131 186.024 13.983 185.342 14.5227C184.661 15.053 184.144 15.7917 183.794 16.7386C183.444 17.6856 183.268 18.7794 183.268 20.0199C183.268 21.2794 183.444 22.3684 183.794 23.2869C184.154 24.196 184.67 24.9015 185.342 25.4034C186.024 25.8958 186.862 26.142 187.857 26.142Z" fill="#FF8747"/>
<path d="M215.041 31V6.27273H223.396C225.336 6.27273 226.922 6.62287 228.153 7.32315C229.393 8.01539 230.311 8.95312 230.906 10.1364C231.502 11.3196 231.8 12.6397 231.8 14.0966C231.8 15.5535 231.502 16.8776 230.906 18.0689C230.319 19.2602 229.409 20.21 228.178 20.9183C226.946 21.6186 225.368 21.9688 223.445 21.9688H217.456V19.3125H223.348C224.676 19.3125 225.743 19.0831 226.548 18.6243C227.353 18.1655 227.936 17.5457 228.298 16.7649C228.669 15.9761 228.854 15.0866 228.854 14.0966C228.854 13.1065 228.669 12.2211 228.298 11.4403C227.936 10.6596 227.348 10.0478 226.536 9.60511C225.723 9.15436 224.644 8.92898 223.3 8.92898H218.036V31H215.041ZM239.086 6.27273V31H236.237V6.27273H239.086ZM249.763 31.4347C248.587 31.4347 247.521 31.2133 246.563 30.7706C245.605 30.3198 244.845 29.6719 244.281 28.8267C243.718 27.9735 243.436 26.9432 243.436 25.7358C243.436 24.6733 243.645 23.812 244.064 23.152C244.482 22.4839 245.042 21.9607 245.742 21.5824C246.442 21.2041 247.215 20.9223 248.06 20.7372C248.913 20.544 249.771 20.3911 250.632 20.2784C251.759 20.1335 252.672 20.0249 253.373 19.9524C254.081 19.8719 254.596 19.7391 254.918 19.554C255.248 19.3688 255.413 19.0469 255.413 18.5881V18.4915C255.413 17.3002 255.087 16.3745 254.435 15.7145C253.791 15.0545 252.813 14.7244 251.501 14.7244C250.141 14.7244 249.074 15.0223 248.302 15.6179C247.529 16.2135 246.986 16.8494 246.672 17.5256L243.967 16.5597C244.45 15.4328 245.094 14.5554 245.899 13.9276C246.712 13.2917 247.597 12.849 248.555 12.5994C249.521 12.3419 250.471 12.2131 251.405 12.2131C252 12.2131 252.684 12.2855 253.457 12.4304C254.238 12.5672 254.991 12.853 255.715 13.2876C256.448 13.7223 257.055 14.3783 257.538 15.2557C258.021 16.133 258.263 17.3082 258.263 18.7812V31H255.413V28.4886H255.268C255.075 28.8911 254.753 29.3217 254.302 29.7805C253.852 30.2393 253.252 30.6297 252.503 30.9517C251.755 31.2737 250.841 31.4347 249.763 31.4347ZM250.197 28.875C251.324 28.875 252.274 28.6536 253.047 28.2109C253.827 27.7682 254.415 27.1967 254.809 26.4964C255.212 25.7962 255.413 25.0597 255.413 24.2869V21.679C255.292 21.8239 255.027 21.9567 254.616 22.0774C254.214 22.1901 253.747 22.2907 253.216 22.3793C252.693 22.4598 252.181 22.5322 251.682 22.5966C251.191 22.6529 250.793 22.7012 250.487 22.7415C249.747 22.8381 249.054 22.995 248.41 23.2124C247.774 23.4216 247.259 23.7396 246.865 24.1662C246.479 24.5848 246.285 25.1562 246.285 25.8807C246.285 26.8707 246.652 27.6193 247.384 28.1264C248.125 28.6255 249.062 28.875 250.197 28.875ZM271.529 12.4545V14.8693H261.918V12.4545H271.529ZM264.719 8.01136H267.569V25.6875C267.569 26.4924 267.685 27.0961 267.919 27.4986C268.16 27.893 268.466 28.1586 268.836 28.2955C269.215 28.4242 269.613 28.4886 270.032 28.4886C270.346 28.4886 270.603 28.4725 270.804 28.4403C271.006 28.4001 271.167 28.3679 271.287 28.3438L271.867 30.9034C271.674 30.9759 271.404 31.0483 271.058 31.1207C270.712 31.2012 270.273 31.2415 269.742 31.2415C268.937 31.2415 268.148 31.0684 267.375 30.7223C266.611 30.3762 265.975 29.849 265.468 29.1406C264.969 28.4323 264.719 27.5388 264.719 26.4602V8.01136ZM281.272 31.4347C280.097 31.4347 279.031 31.2133 278.073 30.7706C277.115 30.3198 276.354 29.6719 275.791 28.8267C275.227 27.9735 274.946 26.9432 274.946 25.7358C274.946 24.6733 275.155 23.812 275.574 23.152C275.992 22.4839 276.551 21.9607 277.252 21.5824C277.952 21.2041 278.725 20.9223 279.57 20.7372C280.423 20.544 281.28 20.3911 282.142 20.2784C283.269 20.1335 284.182 20.0249 284.882 19.9524C285.591 19.8719 286.106 19.7391 286.428 19.554C286.758 19.3688 286.923 19.0469 286.923 18.5881V18.4915C286.923 17.3002 286.597 16.3745 285.945 15.7145C285.301 15.0545 284.323 14.7244 283.011 14.7244C281.651 14.7244 280.584 15.0223 279.811 15.6179C279.039 16.2135 278.495 16.8494 278.181 17.5256L275.477 16.5597C275.96 15.4328 276.604 14.5554 277.409 13.9276C278.222 13.2917 279.107 12.849 280.065 12.5994C281.031 12.3419 281.981 12.2131 282.914 12.2131C283.51 12.2131 284.194 12.2855 284.967 12.4304C285.748 12.5672 286.5 12.853 287.225 13.2876C287.957 13.7223 288.565 14.3783 289.048 15.2557C289.531 16.133 289.772 17.3082 289.772 18.7812V31H286.923V28.4886H286.778C286.585 28.8911 286.263 29.3217 285.812 29.7805C285.361 30.2393 284.762 30.6297 284.013 30.9517C283.265 31.2737 282.351 31.4347 281.272 31.4347ZM281.707 28.875C282.834 28.875 283.784 28.6536 284.556 28.2109C285.337 27.7682 285.925 27.1967 286.319 26.4964C286.722 25.7962 286.923 25.0597 286.923 24.2869V21.679C286.802 21.8239 286.537 21.9567 286.126 22.0774C285.724 22.1901 285.257 22.2907 284.725 22.3793C284.202 22.4598 283.691 22.5322 283.192 22.5966C282.701 22.6529 282.303 22.7012 281.997 22.7415C281.256 22.8381 280.564 22.995 279.92 23.2124C279.284 23.4216 278.769 23.7396 278.375 24.1662C277.988 24.5848 277.795 25.1562 277.795 25.8807C277.795 26.8707 278.161 27.6193 278.894 28.1264C279.634 28.6255 280.572 28.875 281.707 28.875ZM303.232 12.4545V14.8693H293.235V12.4545H303.232ZM296.229 31V9.89489C296.229 8.83239 296.478 7.94697 296.977 7.23863C297.477 6.5303 298.124 5.99905 298.921 5.64488C299.718 5.29072 300.559 5.11363 301.445 5.11363C302.145 5.11363 302.717 5.16998 303.159 5.28267C303.602 5.39536 303.932 5.5 304.149 5.59659L303.328 8.05966C303.183 8.01136 302.982 7.95099 302.725 7.87855C302.475 7.80611 302.145 7.76988 301.735 7.76988C300.793 7.76988 300.113 8.00734 299.694 8.48224C299.284 8.95715 299.078 9.65341 299.078 10.571V31H296.229ZM313.996 31.3864C312.321 31.3864 310.852 30.9879 309.589 30.1911C308.333 29.3942 307.351 28.2794 306.643 26.8466C305.942 25.4138 305.592 23.7396 305.592 21.8239C305.592 19.892 305.942 18.2057 306.643 16.7649C307.351 15.3241 308.333 14.2053 309.589 13.4084C310.852 12.6115 312.321 12.2131 313.996 12.2131C315.67 12.2131 317.135 12.6115 318.39 13.4084C319.654 14.2053 320.636 15.3241 321.336 16.7649C322.045 18.2057 322.399 19.892 322.399 21.8239C322.399 23.7396 322.045 25.4138 321.336 26.8466C320.636 28.2794 319.654 29.3942 318.39 30.1911C317.135 30.9879 315.67 31.3864 313.996 31.3864ZM313.996 28.8267C315.267 28.8267 316.314 28.5007 317.135 27.8487C317.956 27.1967 318.564 26.3395 318.958 25.277C319.352 24.2145 319.55 23.0634 319.55 21.8239C319.55 20.5843 319.352 19.4292 318.958 18.3587C318.564 17.2881 317.956 16.4228 317.135 15.7628C316.314 15.1027 315.267 14.7727 313.996 14.7727C312.724 14.7727 311.677 15.1027 310.856 15.7628C310.035 16.4228 309.428 17.2881 309.033 18.3587C308.639 19.4292 308.442 20.5843 308.442 21.8239C308.442 23.0634 308.639 24.2145 309.033 25.277C309.428 26.3395 310.035 27.1967 310.856 27.8487C311.677 28.5007 312.724 28.8267 313.996 28.8267ZM326.749 31V12.4545H329.501V15.2557H329.695C330.033 14.3381 330.644 13.5935 331.53 13.022C332.415 12.4505 333.413 12.1648 334.524 12.1648C334.733 12.1648 334.995 12.1688 335.309 12.1768C335.623 12.1849 335.86 12.197 336.021 12.2131V15.1108C335.925 15.0866 335.703 15.0504 335.357 15.0021C335.019 14.9458 334.661 14.9176 334.283 14.9176C333.381 14.9176 332.576 15.1068 331.868 15.4851C331.168 15.8553 330.612 16.3705 330.202 17.0305C329.799 17.6825 329.598 18.4271 329.598 19.2642V31H326.749ZM339.399 31V12.4545H342.152V15.3523H342.393C342.78 14.3622 343.403 13.5935 344.265 13.0462C345.126 12.4908 346.16 12.2131 347.368 12.2131C348.591 12.2131 349.609 12.4908 350.422 13.0462C351.243 13.5935 351.883 14.3622 352.342 15.3523H352.535C353.01 14.3944 353.723 13.6338 354.672 13.0703C355.622 12.4988 356.761 12.2131 358.089 12.2131C359.747 12.2131 361.104 12.7322 362.158 13.7706C363.213 14.8009 363.74 16.4067 363.74 18.5881V31H360.89V18.5881C360.89 17.2197 360.516 16.2417 359.768 15.6541C359.019 15.0665 358.138 14.7727 357.123 14.7727C355.819 14.7727 354.809 15.1671 354.093 15.956C353.376 16.7367 353.018 17.7268 353.018 18.9261V31H350.121V18.2983C350.121 17.2438 349.778 16.3946 349.094 15.7507C348.41 15.0987 347.529 14.7727 346.45 14.7727C345.71 14.7727 345.017 14.9699 344.373 15.3643C343.738 15.7588 343.222 16.3061 342.828 17.0064C342.442 17.6986 342.248 18.4995 342.248 19.4091V31H339.399Z" fill="white"/>
</svg>
